<svg xmlns="http://www.w3.org/2000/svg" width="11.4" height="9.603" viewBox="0 0 11.4 9.603">
  <g id="Group_1" data-name="Group 1" transform="translate(-3702 -2212)">
    <path id="pagination-next" d="M2.1,4.4,6.9.4A.769.769,0,0,1,8.2,1V9a.792.792,0,0,1-1.3.6l-4.8-4A.75.75,0,0,1,2.1,4.4Z" transform="translate(3700.2 2211.823)" fill="#3164a2"/>
    <path id="pagination-next-2" data-name="pagination-next" d="M2.1,4.4,6.9.4A.769.769,0,0,1,8.2,1V9a.792.792,0,0,1-1.3.6l-4.8-4A.75.75,0,0,1,2.1,4.4Z" transform="translate(3705.2 2211.823)" fill="#3164a2"/>
  </g>
</svg>
