<svg id="Group_2" data-name="Group 2" xmlns="http://www.w3.org/2000/svg" width="11.4" height="9.603" viewBox="0 0 11.4 9.603">
  <path id="pagination-next" d="M7.9,4.4,3.1.4A.769.769,0,0,0,1.8,1V9a.792.792,0,0,0,1.3.6l4.8-4A.75.75,0,0,0,7.9,4.4Z" transform="translate(3.2 -0.177)" fill="#3164a2"/>
  <path id="pagination-next-2" data-name="pagination-next" d="M7.9,4.4,3.1.4A.769.769,0,0,0,1.8,1V9a.792.792,0,0,0,1.3.6l4.8-4A.75.75,0,0,0,7.9,4.4Z" transform="translate(-1.8 -0.177)" fill="#3164a2"/>
</svg>
