<?xml version="1.0" encoding="utf-8"?>
<!-- Generator: Adobe Illustrator 23.0.3, SVG Export Plug-In . SVG Version: 6.00 Build 0)  -->
<svg version="1.1" id="Layer_1" xmlns="http://www.w3.org/2000/svg" xmlns:xlink="http://www.w3.org/1999/xlink" x="0px" y="0px"
	 width="25px" height="25px" viewBox="0 0 25 25" style="enable-background:new 0 0 25 25;" xml:space="preserve">
<style type="text/css">
	.st0{fill:#FFFFFF;}
</style>
<g>
	<g>
		<g>
			<g>
				<path class="st0" d="M13.5,4.8c0,0.2,0,0.7,0.7,0.9V3.9C13.5,4.1,13.5,4.6,13.5,4.8z"/>
			</g>
		</g>
		<g>
			<g>
				<path class="st0" d="M15.7,7.3V9c0.7-0.2,0.7-0.7,0.7-0.9C16.5,7.9,16.5,7.5,15.7,7.3z"/>
			</g>
		</g>
		<g>
			<g>
				<path class="st0" d="M15,0c-3.6,0-6.5,2.9-6.5,6.5S11.4,13,15,13s6.5-2.9,6.5-6.5S18.6,0,15,0z M17,6.2c0.6,0.4,1,1.1,1,1.9
					s-0.3,1.5-1,1.9c-0.3,0.2-0.8,0.4-1.2,0.5v0.7h-1.5v-0.7c-0.5-0.1-0.9-0.2-1.2-0.5c-0.6-0.4-1-1.1-1-1.9h1.5
					c0,0.2,0,0.7,0.7,0.9V7.2c-0.5-0.1-0.9-0.2-1.2-0.5c-0.6-0.4-1-1.1-1-1.9s0.3-1.5,1-1.9c0.3-0.2,0.8-0.4,1.2-0.5V1.7h1.5v0.7
					c0.5,0.1,0.9,0.2,1.2,0.5c0.6,0.4,1,1.1,1,1.9h-1.5c0-0.2,0-0.7-0.7-0.9v1.8C16.2,5.9,16.6,6,17,6.2z"/>
			</g>
		</g>
		<g>
			<g>
				<polygon class="st0" points="0,14.9 0,25 3.7,25 3.7,23.5 3.7,23.1 3.7,16.4 3.7,15 3.7,14.9 				"/>
			</g>
		</g>
		<g>
			<g>
				<polygon class="st0" points="24.4,17.3 18.3,19 13,17.7 13.3,16.3 18.2,17.5 18.3,17.5 18.3,15.6 11.4,13.8 5.2,14.8 5.2,14.9 
					5.2,16.3 5.2,21.4 5.2,22.9 8.8,22.5 15.8,24.5 25,19.4 				"/>
			</g>
		</g>
	</g>
</g>
</svg>
